<svg width="41" height="67" viewBox="0 0 41 67" fill="none" xmlns="http://www.w3.org/2000/svg">
<path d="M10.25 4.1875L10.25 6.28125L5.125 6.28125C3.76576 6.28125 2.4622 6.72243 1.50108 7.50774C0.539952 8.29305 -2.51961e-06 9.35815 -2.47106e-06 10.4688L-1.83041e-07 62.8125C-1.34496e-07 63.9231 0.539955 64.9882 1.50108 65.7735C2.4622 66.5588 3.76577 67 5.125 67L35.875 67C37.2342 67 38.5378 66.5588 39.4989 65.7735C40.46 64.9882 41 63.9231 41 62.8125L41 10.4687C41 9.35815 40.46 8.29305 39.4989 7.50774C38.5378 6.72243 37.2342 6.28125 35.875 6.28125L33.3125 6.28125L33.3125 4.1875C33.3125 3.0769 32.7725 2.0118 31.8114 1.22649C30.8503 0.441184 29.5467 -1.29153e-06 28.1875 -1.23211e-06L15.375 -6.72063e-07C14.0158 -6.12649e-07 12.7122 0.441184 11.7511 1.22649C10.79 2.0118 10.25 3.0769 10.25 4.1875ZM33.3125 8.375C34.6717 8.375 35.9753 8.81618 36.9364 9.60149C37.8975 10.3868 38.4375 11.4519 38.4375 12.5625L38.4375 60.7187C38.4375 61.8293 37.8975 62.8944 36.9364 63.6798C35.9753 64.4651 34.6717 64.9062 33.3125 64.9062L7.6875 64.9062C6.32826 64.9062 5.0247 64.4651 4.06358 63.6798C3.10245 62.8945 2.5625 61.8293 2.5625 60.7187L2.5625 12.5625C2.5625 11.4519 3.10245 10.3868 4.06358 9.60149C5.0247 8.81618 6.32826 8.375 7.6875 8.375L33.3125 8.375ZM25.625 2.09375C26.9842 2.09375 28.2878 2.53493 29.2489 3.32024C30.21 4.10555 30.75 5.17065 30.75 6.28125L12.8125 6.28125C12.8125 5.17065 13.3525 4.10555 14.3136 3.32024C15.2747 2.53493 16.5783 2.09375 17.9375 2.09375L25.625 2.09375Z" fill="#1C1C1C"/>
<path d="M10.25 41.875L20.5 39.7812L20.5 58.625L30.75 31.4062L20.5 33.5L20.5 14.6562L10.25 41.875Z" fill="#1C1C1C"/>
</svg>
