<svg width="65" height="64" viewBox="0 0 65 64" fill="none" xmlns="http://www.w3.org/2000/svg">
<path d="M64.4125 32.384C64.4675 32.261 64.4985 32.129 64.4985 31.991C64.4985 31.728 64.3935 31.476 64.2015 31.293C63.9355 31.035 57.7175 25.129 49.7855 24.836C55.1955 19.019 55.4065 10.445 55.4145 10.074C55.4185 9.811 55.3165 9.558 55.1295 9.371C54.9435 9.185 54.6955 9.1 54.4285 9.087C54.0575 9.093 45.4895 9.305 39.6645 14.706C39.3735 6.765 33.4565 0.563 33.1985 0.296C33.1965 0.294 33.1925 0.294 33.1915 0.292C33.0145 0.113 32.7705 0 32.4995 0C32.2245 0 31.9785 0.117 31.8025 0.301C31.5335 0.579 25.6345 6.78 25.3465 14.716C19.7415 9.504 11.6005 9.119 10.6795 9.091C10.4025 9.064 10.1155 9.144 9.90246 9.357C9.90047 9.358 9.90047 9.36 9.89946 9.362C9.89446 9.366 9.88646 9.368 9.88246 9.372C9.69546 9.559 9.59346 9.811 9.59746 10.075C9.60546 10.447 9.81646 19.032 15.2235 24.837C7.28846 25.126 1.06646 31.036 0.798465 31.294C0.609465 31.477 0.501465 31.729 0.501465 31.992C0.501465 32.255 0.608465 32.507 0.798465 32.69C1.06646 32.948 7.28446 38.863 15.2165 39.156C9.81546 44.974 9.60546 53.547 9.59746 53.919C9.59746 53.924 9.60146 53.93 9.60146 53.936L9.60046 53.939C9.60046 53.966 9.61346 53.988 9.61546 54.014C9.62546 54.116 9.63646 54.217 9.67646 54.31C9.70446 54.377 9.75246 54.429 9.79346 54.487C9.82546 54.531 9.84447 54.583 9.88346 54.621C9.88346 54.621 9.88646 54.622 9.88746 54.624C9.97746 54.713 10.0845 54.784 10.2035 54.833C10.2305 54.844 10.2625 54.842 10.2915 54.851C10.3835 54.879 10.4755 54.908 10.5755 54.908C10.5815 54.908 10.5865 54.905 10.5935 54.905C11.0065 54.897 19.5455 54.664 25.3475 49.278C25.6395 57.218 31.5465 63.437 31.8035 63.704C31.9855 63.893 32.2375 64 32.5005 64C32.6335 64 32.7625 63.972 32.8825 63.921C33.0015 63.871 33.1075 63.796 33.1955 63.705C33.1975 63.705 33.1985 63.704 33.1985 63.704C33.4555 63.437 39.3665 57.222 39.6635 49.285C45.3525 54.559 53.6575 54.885 54.3685 54.903C54.3915 54.904 54.4155 54.917 54.4405 54.917C54.6885 54.917 54.9365 54.822 55.1265 54.633C55.2245 54.535 55.2945 54.42 55.3415 54.299C55.3455 54.294 55.3435 54.288 55.3455 54.282C55.3865 54.171 55.4095 54.056 55.4095 53.94C55.4095 53.933 55.4135 53.926 55.4135 53.919C55.4055 53.548 55.1945 44.974 49.7945 39.157C57.5465 38.866 63.6425 33.222 64.1595 32.73C64.2685 32.632 64.3575 32.519 64.4125 32.384ZM40.5945 16.503C44.0285 13.071 48.8545 11.789 51.8155 11.311L48.8975 14.234C48.5185 14.613 48.5205 15.227 48.8995 15.606C49.0885 15.795 49.3375 15.889 49.5855 15.889C49.8335 15.889 50.0815 15.794 50.2715 15.604L53.1935 12.675C52.7165 15.632 51.4355 20.461 48.0005 23.898C47.5205 24.378 47.0255 24.776 46.5925 25.111L37.9925 28.678C37.4615 27.788 36.7135 27.039 35.8245 26.505L39.3925 17.902C39.8075 17.366 40.2035 16.902 40.5945 16.503ZM34.2115 36.13C33.1245 36.585 31.8875 36.59 30.7825 36.123C29.6905 35.691 28.8105 34.813 28.3585 33.691C28.1345 33.175 28.0215 32.603 28.0215 31.992C28.0215 31.379 28.1345 30.812 28.3675 30.281C28.8135 29.182 29.6955 28.299 30.8055 27.852C31.3375 27.626 31.9085 27.512 32.5015 27.512C33.0935 27.512 33.6685 27.627 34.2215 27.858C35.3155 28.302 36.1925 29.179 36.6355 30.285C36.6375 30.287 36.6355 30.289 36.6375 30.291C36.6375 30.294 36.6415 30.297 36.6435 30.3C36.8645 30.823 36.9815 31.408 36.9815 31.992C36.9815 32.584 36.8665 33.16 36.6375 33.704C36.1825 34.802 35.2995 35.685 34.2115 36.13ZM31.5295 3.715V7.982C31.5295 8.517 31.9645 8.952 32.4995 8.952C33.0345 8.952 33.4695 8.517 33.4695 7.982V3.702C35.2235 6.122 37.7375 10.436 37.7375 15.314C37.7375 15.984 37.6715 16.608 37.6045 17.149L34.0305 25.769C33.0235 25.523 31.9665 25.525 30.9815 25.766L27.4095 17.153C27.3415 16.61 27.2755 15.984 27.2755 15.315C27.2745 10.456 29.7775 6.142 31.5295 3.715ZM11.8145 12.64L14.8605 15.686C15.0495 15.875 15.2985 15.97 15.5465 15.97C15.7945 15.97 16.0425 15.875 16.2325 15.686C16.6115 15.307 16.6115 14.693 16.2325 14.315L13.2345 11.317C16.1955 11.8 20.9915 13.087 24.4095 16.505C24.8055 16.901 25.1945 17.352 25.6205 17.901L29.1885 26.505C28.2955 27.042 27.5455 27.793 27.0125 28.681L18.4145 25.116C18.0025 24.803 17.4925 24.397 17.0135 23.899C13.5625 20.448 12.2855 15.593 11.8145 12.64ZM4.21746 32.965H8.46046C8.99547 32.965 9.43046 32.53 9.43046 31.995C9.43046 31.459 8.99547 31.025 8.46046 31.025H4.21246C6.64446 29.272 10.9675 26.765 15.8225 26.765C16.4855 26.765 17.1075 26.83 17.6485 26.897L26.2675 30.472C26.1495 30.957 26.0805 31.463 26.0805 31.992C26.0805 32.525 26.1495 33.036 26.2695 33.525L17.6625 37.094C17.1195 37.162 16.4935 37.228 15.8215 37.228C10.9705 37.228 6.65047 34.72 4.21746 32.965ZM24.4085 47.489C20.9785 50.912 16.1605 52.197 13.2025 52.678L16.1195 49.755C16.4985 49.376 16.4965 48.762 16.1175 48.383C15.7385 48.004 15.1245 48.006 14.7465 48.384L11.8185 51.318C12.2955 48.359 13.5755 43.523 17.0125 40.085C17.4095 39.688 17.8695 39.294 18.4045 38.886L27.0145 35.315C27.5505 36.21 28.3005 36.957 29.1855 37.484L25.6175 46.087C25.1675 46.667 24.7915 47.106 24.4085 47.489ZM33.4755 60.282V56.414C33.4755 55.879 33.0405 55.444 32.5055 55.444C31.9695 55.444 31.5355 55.879 31.5355 56.414V60.296C29.7825 57.869 27.2735 53.546 27.2735 48.669C27.2735 48.002 27.3405 47.355 27.4055 46.837L30.9795 38.218C31.4715 38.34 31.9795 38.409 32.5005 38.409C33.0215 38.409 33.5335 38.34 34.0295 38.217L37.6035 46.834C37.6695 47.383 37.7365 48.012 37.7365 48.668C37.7365 53.527 35.2305 57.849 33.4755 60.282ZM53.1955 51.333L50.3845 48.528C50.0035 48.149 49.3905 48.151 49.0135 48.529C48.6345 48.908 48.6365 49.522 49.0155 49.901L51.7945 52.676C48.8335 52.194 44.0215 50.909 40.6015 47.495C40.2185 47.105 39.8305 46.648 39.3905 46.079L35.8205 37.474C36.6995 36.941 37.4415 36.197 37.9785 35.313L46.6015 38.889C47.1245 39.296 47.5895 39.691 48.0035 40.091C51.4435 43.535 52.7215 48.378 53.1955 51.333ZM49.1785 37.228C48.5185 37.228 47.8835 37.162 47.3305 37.093L38.7265 33.524C38.8495 33.025 38.9195 32.514 38.9195 31.992C38.9195 31.478 38.8495 30.965 38.7285 30.473L47.3455 26.899C47.8945 26.831 48.5255 26.765 49.1775 26.765C54.0525 26.765 58.3885 29.291 60.8165 31.044H56.7115C56.1765 31.044 55.7405 31.478 55.7405 32.014C55.7405 32.55 56.1765 32.984 56.7115 32.984H60.7625C58.3305 34.738 54.0275 37.228 49.1785 37.228Z" fill="#010101"/>
</svg>
