<svg width="37" height="64" viewBox="0 0 37 64" fill="none" xmlns="http://www.w3.org/2000/svg">
<g clip-path="url(#clip0_83_356)">
<path d="M18.5001 29C18.3229 29.0001 18.1489 29.0472 17.9959 29.1365C17.8429 29.2259 17.7163 29.3542 17.6291 29.5085L15.0442 34.09C14.6919 34.6794 14.5037 35.3523 14.4991 36.039C14.4945 36.7256 14.6738 37.401 15.0183 37.995C15.3722 38.6049 15.8801 39.1111 16.4912 39.4629C17.1022 39.8148 17.795 40 18.5001 40C19.2052 40 19.8979 39.8148 20.509 39.4629C21.12 39.1111 21.628 38.6049 21.9819 37.995C22.3257 37.4038 22.5053 36.7316 22.5023 36.0477C22.4994 35.3638 22.3138 34.6932 21.9649 34.105L19.371 29.5085C19.2839 29.3542 19.1573 29.2259 19.0043 29.1365C18.8513 29.0472 18.6773 29.0001 18.5001 29ZM20.245 37.0025C20.066 37.3062 19.8108 37.5578 19.5048 37.7327C19.1987 37.9076 18.8523 37.9995 18.4998 37.9995C18.1474 37.9995 17.801 37.9076 17.4949 37.7327C17.1888 37.5578 16.9337 37.3062 16.7547 37.0025C16.584 36.7117 16.4958 36.3799 16.4997 36.0427C16.5036 35.7055 16.5994 35.3758 16.7767 35.089L18.5001 32.0345L20.2325 35.1045C20.4063 35.39 20.4993 35.7174 20.5016 36.0517C20.5039 36.386 20.4154 36.7146 20.2455 37.0025H20.245ZM28.3851 36.538C28.3005 36.3758 28.173 36.2398 28.0166 36.145C27.8601 36.0501 27.6806 36 27.4977 36C27.3147 36 27.1352 36.0501 26.9788 36.145C26.8223 36.2398 26.6948 36.3758 26.6102 36.538L19.6935 49.803C18.8791 51.3075 18.4681 52.9972 18.5006 54.7076C18.533 56.4181 19.0077 58.091 19.8785 59.5635C20.6432 60.9103 21.7511 62.0304 23.0895 62.8096C24.428 63.5888 25.949 63.9993 27.4977 63.9993C29.0464 63.9993 30.5674 63.5888 31.9058 62.8096C33.2442 62.0304 34.3522 60.9103 35.1168 59.5635C35.9869 58.0938 36.4619 56.4241 36.4959 54.7165C36.5298 53.0089 36.1213 51.3216 35.3103 49.8185L28.3851 36.538ZM33.3959 58.5415C32.8089 59.5902 31.9529 60.4635 30.9161 61.0714C29.8793 61.6792 28.6992 61.9996 27.4974 61.9996C26.2956 61.9996 25.1155 61.6792 24.0787 61.0714C23.042 60.4635 22.186 59.5902 21.5989 58.5415C20.894 57.3678 20.5102 56.0294 20.4858 54.6605C20.4615 53.2917 20.7976 51.9405 21.4605 50.7425L27.4977 39.165L33.5434 50.759C34.2026 51.9555 34.536 53.3043 34.5101 54.6702C34.4843 56.0361 34.1 57.3708 33.3959 58.5415Z" fill="black"/>
<path d="M26.0861 56.6924C24.6532 55.6469 25.0312 53.8109 25.0512 53.7214C25.1105 53.4628 25.0647 53.1912 24.9239 52.9663C24.783 52.7414 24.5586 52.5816 24.3 52.5221C24.0415 52.4626 23.7698 52.5082 23.5448 52.6489C23.3199 52.7896 23.16 53.0139 23.1003 53.2724C23.0703 53.4024 22.3868 56.4689 24.9052 58.3074C25.0112 58.385 25.1315 58.4409 25.2591 58.4719C25.3868 58.503 25.5193 58.5086 25.6491 58.4885C25.7789 58.4683 25.9035 58.4228 26.0157 58.3545C26.1279 58.2862 26.2256 58.1965 26.3031 58.0904C26.3807 57.9844 26.4366 57.8641 26.4676 57.7365C26.4987 57.6088 26.5043 57.4763 26.4841 57.3465C26.464 57.2167 26.4185 57.0921 26.3502 56.9799C26.2819 56.8676 26.1922 56.77 26.0861 56.6924ZM10.0599 35.2039C9.96486 35.1263 9.85473 35.0692 9.73649 35.0364C9.61824 35.0036 9.49446 34.9957 9.37302 35.0133C9.25157 35.0309 9.1351 35.0735 9.03102 35.1385C8.92694 35.2035 8.83752 35.2895 8.76844 35.3909C8.71044 35.4724 3.0327 43.6344 9.85988 52.6384C9.94288 52.7508 10.0509 52.8424 10.1755 52.9057C10.3 52.9691 10.4376 53.0025 10.5774 53.0034C10.7903 53.0029 10.9959 52.9255 11.1563 52.7854C11.3481 52.6143 11.4687 52.3775 11.4942 52.1217C11.5196 51.866 11.4481 51.61 11.2938 51.4044C5.39759 43.6279 10.0309 36.8694 10.2364 36.5784C10.3845 36.3688 10.4485 36.1112 10.4158 35.8566C10.3831 35.602 10.2561 35.3694 10.0599 35.2039Z" fill="black"/>
<path d="M20.1689 63.0779C19.9919 62.9112 19.8198 62.7384 19.6524 62.5594L19.6499 62.5569C19.4833 62.3779 19.3216 62.1929 19.165 62.0019L19.1635 61.9999H12.7523C12.4758 61.9981 12.2026 61.94 11.9494 61.8291C11.6961 61.7182 11.4681 61.5568 11.2793 61.3549C10.7879 60.8339 10.3078 60.3023 9.83939 59.7604C5.81608 55.1039 3.41319 50.3964 2.69672 45.7689C2.34404 43.2933 2.50918 40.7715 3.18168 38.3631C3.85418 35.9547 5.01939 33.7121 6.60354 31.7774C7.3725 30.8189 8.23746 29.9124 9.15342 28.9524C11.1043 26.9064 13.1222 24.7909 14.2642 22.0509C15.1591 19.9039 15.2821 17.6484 15.3421 15.1339C15.3421 15.1339 15.3871 13.3149 15.3496 12.5054H21.6588C21.4998 15.6269 21.4708 19.0229 22.7328 22.0504C23.8752 24.7914 25.8926 26.9069 27.845 28.9529C28.76 29.9129 29.625 30.8189 30.3939 31.7774C33.1765 35.1958 34.6284 39.5055 34.4817 43.9109L36.1067 47.0304C36.1707 46.7117 36.2273 46.3931 36.2766 46.0744C36.6715 43.3246 36.4912 40.5227 35.7471 37.8462C35.003 35.1697 33.7113 32.6768 31.9539 30.5254C31.8774 30.4304 31.7964 30.3379 31.7184 30.2439C32.2358 28.8902 32.5008 27.4531 32.5003 26.0039C32.5003 20.4079 28.6555 15.7354 23.5827 14.7144C23.5972 13.6169 23.6592 12.5104 23.7217 11.4164L23.7357 11.1689C23.8812 8.60191 24.3622 6.58041 26.2341 5.05391C26.3885 4.9293 26.5165 4.77519 26.6107 4.60058C26.7048 4.42597 26.7633 4.23435 26.7826 4.03691C26.8022 3.84341 26.7831 3.64793 26.7264 3.4619C26.6696 3.27586 26.5764 3.103 26.4521 2.95341C26.2565 2.71901 25.9933 2.55012 25.6985 2.47067C25.4037 2.39122 25.0916 2.40457 24.8047 2.50891C19.8384 4.29991 13.6747 0.811407 13.6137 0.775907C13.5901 0.762631 13.5661 0.750125 13.5417 0.738407C9.05993 -1.37809 6.97802 1.62991 6.44605 2.60241C6.3437 2.78865 6.28221 2.99455 6.26566 3.20642C6.24911 3.41828 6.27789 3.63124 6.35008 3.83111C6.42227 4.03098 6.53621 4.21318 6.68431 4.36557C6.83242 4.51797 7.01129 4.63705 7.20901 4.71491C9.46179 5.56232 11.3501 7.16631 12.5508 9.25241C13.4482 10.8624 13.3982 12.8789 13.3492 14.8294L13.3437 15.0864C13.2877 17.3949 13.1797 19.4549 12.4188 21.2814C11.4188 23.6789 9.5314 25.6584 7.70549 27.5724C6.80153 28.5204 5.86658 29.5009 5.04411 30.5254C3.28638 32.6767 1.99447 35.1695 1.25019 37.846C0.505907 40.5226 0.325475 43.3245 0.720317 46.0744C1.49528 51.0784 4.05416 56.1229 8.32646 61.0674C8.81343 61.631 9.31253 62.1839 9.82339 62.7259C10.1995 63.126 10.6532 63.4453 11.1567 63.6644C11.6603 63.8834 12.2031 63.9976 12.7523 63.9999H21.2909C20.897 63.7177 20.5219 63.4097 20.1689 63.0779ZM30.4999 26.0039C30.4977 26.8475 30.3875 27.6873 30.1719 28.5029C29.88 28.1916 29.5866 27.8816 29.292 27.5729C27.4666 25.6589 25.5787 23.6794 24.5787 21.2814C24.0146 19.8474 23.6936 18.3295 23.6287 16.7899C25.6307 17.3514 27.3905 18.5598 28.6335 20.2266C29.8765 21.8934 30.5328 23.9249 30.4999 26.0039ZM8.50445 3.09041C9.20542 2.16641 10.4559 1.50541 12.6533 2.53041C13.2107 2.84541 18.4785 5.71691 23.6467 4.86491C22.3233 6.59641 21.9268 8.61941 21.7783 10.5059H15.1086C14.9523 9.72689 14.6789 8.97604 14.2977 8.27891C12.9829 5.96482 10.9489 4.14308 8.50445 3.09041Z" fill="black"/>
</g>
<defs>
<clipPath id="clip0_83_356">
<rect width="36" height="64" fill="white" transform="translate(0.5)"/>
</clipPath>
</defs>
</svg>
